<?xml version="1.0" encoding="utf-8"?>
<!-- Generator: Adobe Illustrator 24.0.0, SVG Export Plug-In . SVG Version: 6.00 Build 0)  -->
<svg version="1.1" id="Capa_1" xmlns="http://www.w3.org/2000/svg" xmlns:xlink="http://www.w3.org/1999/xlink" x="0px" y="0px"
	 viewBox="0 0 640 480" style="enable-background:new 0 0 640 480;" xml:space="preserve">
<style type="text/css">
	.st0{fill:#00FFFF;}
	.st1{fill:#FFFFFF;}
</style>
<g>
	<rect x="1" y="0.33" class="st0" width="638.5" height="480"/>
</g>
<g>
	<g>
		<path class="st1" d="M192.97,355.24c-2.24,0.08-4.15-0.45-5.74-1.61c-9.96-4.69-16.16-18.95-17.7-22.92
			c-4.25-9.46-14.94-33.22-18.41-40.03c-4.36-8.55-8.6-15.99-13.87-23.02c-3.65-4.88-10.45-12.93-13.88-15.65
			c1.18,0.02,7.69,0.31,8.87,0.24c8.68-0.42,17.15-2.37,25.42-5.82c8.21-3.42,15.44-7.84,21.7-13.2c0,0.03,0,0.08-0.02,0.11
			c4.95-4.44,9.08-9.6,11.27-12.52c1.41-2.04,2.71-4.18,3.86-6.41c3.63-7.02,5.08-14.4,4.31-22.14c-0.65-5.76-2.29-11.18-4.95-16.19
			c-0.73-1.4-1.54-2.76-2.4-4.09c-1.49-2.76-3.42-5.27-5.48-7.61c-3-3.42-6.31-6.98-9.81-9.88c-0.73-0.62-5.66-4.75-6.54-6.18
			c-1.18-1.87-1.18-4.1-1.98-6.41c-2.64-7.7-8.17-13.97-9.8-15.88c-15.85-17.21-36.17-15.1-36.17-15.1s-3.02,0.39-4.12,0.58
			c-0.96,0.16-1.9,0.36-2.82,0.58c-1.48,0.37-2.94,0.84-4.33,1.44c-1.66,0.73-3.15,1.72-4.53,2.87c-3.24,2.74-4.7,6.97-3.39,11.03
			c0.62,1.91,1.96,3.57,3.67,4.67c0.93,0.49,1.96,0.91,2.98,1.18c0.88,0.26,1.95,0.39,2.94,0.32c0.05,0.02,0.11,0.02,0.16,0.02
			c0,0,7.51-0.05,15.51-6.24c1.25-0.91,2.4-1.85,3.41-2.81c1.07-1.04,2.09-2.13,3-3.26c0.5-0.62,0.96-1.23,1.41-1.83
			c0.26-0.29,0.7-0.62,1.33-0.62c15.62,3.21,20.94,15.17,22.53,18.49c1.61,3.88-0.05,4.49-0.05,4.49c-0.84,0.37-1.88,0.31-2.6-0.03
			c-22.94-11.6-42.32-6.49-50.71-2.25c-0.23,0.1-0.47,0.19-0.7,0.31c-7.38,3.6-12.08,10.87-11.48,19.11
			c0.24,3.88,2.01,7.59,4.72,10.48c1.48,1.35,3.23,2.61,5.03,3.57c1.52,0.91,3.49,1.64,5.34,2.01c0,0,14.08,3.33,32.15-4.54
			c2.55-1.14,5.35-2.42,7.59-3.75c2.6-1.43,5.05-2.98,7.19-4.7c1.91-1.35,3.67-3.23,5.61-4.56c1.44-0.97,3.21-1.44,4.93-1.41
			c0.89,0.02,1.8,0.16,2.61,0.49c1.26,0.49,2.12,1.57,3.13,2.42c1.22,1.05,2.27,2.24,3.33,3.44c0.86,1.02,2.04,2.29,3.31,3.89
			c0.5,0.65,1.02,1.35,1.54,2.09c0.05,0.05,0.08,0.11,0.11,0.16c0.13,0.18,0.24,0.37,0.37,0.55c0.58,0.89,1.17,1.85,1.74,2.89
			c0.73,1.69,1.46,3.37,2.21,5.01c0.99,2.76,1.74,5.92,2.12,9.59c0.1,1.07,0.18,1.18,0.21,2.32c0.02,0.34-0.32,3.57-0.31,3.91
			c-0.63,6.15-2.55,10.04-6.5,15.62c-4.01,5.6-8.97,10.58-14.96,14.96c-5.97,4.38-12.55,7.98-19.77,10.8
			c-7.23,2.81-14.44,4.54-21.62,5.16c-7.17,0.58-13.97-0.08-20.37-1.99c-6.39-1.93-11.73-5.42-16.01-10.48
			c-3.86-4.66-5.74-9.33-5.61-14c0.15-4.69,1.49-8.89,4.1-12.6c2.6-3.71,6.02-6.73,10.25-9.07c4.23-2.35,8.53-3.55,12.86-3.62
			c4.33-0.06,8.32,1.22,11.94,3.81c3.62,2.63,6.08,7.02,7.35,13.2c0.39,1.91,1.18,2.76,2.42,2.58c1.22-0.18,1.69-1.17,1.39-2.97
			c-0.86-8.22-3.49-14.29-7.92-18.18c-4.43-3.88-9.46-6.03-15.1-6.44c-5.64-0.39-11.29,0.68-16.89,3.26
			c-5.6,2.56-10.02,6.28-13.27,11.14c-3.23,4.85-4.66,10.58-4.32,17.16c0.36,6.59,3.65,13.61,9.91,21.06
			c3.16,3.73,6.59,6.93,10.22,9.57c-0.05,0-0.1,0.02-0.16,0.02c0,0,13.93,10.4,16.33,11.35c0.31,0.23,0.63,0.45,0.94,0.67
			c4.32,3.02,8.78,7.62,13.43,13.8c4.62,6.2,9.41,13.42,14.32,21.67c4.88,8.27,9.6,16.64,14.18,25.18
			c4.57,8.5,8.86,16.58,12.85,24.22c3.97,7.59,14.23,21.27,23.68,20.88c1.05-0.05,2.14-0.32,3.28-0.81
			c1.15-0.49,2.01-1.01,2.61-1.56c0.58-0.57,0.71-1.05,0.34-1.48C196.33,355.32,195.11,355.16,192.97,355.24z M130.62,120.64
			c0,0-0.44,0.62-0.71,0.94c-0.68,0.88-1.46,1.7-2.34,2.5c-0.75,0.71-1.7,1.48-2.56,2.16c-6.23,4.72-11.99,4.79-11.99,4.79
			c-0.73,0.03-1.57-0.05-2.25-0.24c-0.78-0.21-1.56-0.53-2.25-0.91c-1.33-0.83-2.37-2.09-2.86-3.54c-1-3.1,0.13-6.33,2.63-8.39
			c1.05-0.91,2.22-1.65,3.5-2.21c1.05-0.47,2.17-0.83,3.29-1.09c0.71-0.19,1.44-0.34,2.17-0.47c0.26-0.05,0.63-0.1,1.05-0.16
			c0.05-0.02,0.13-0.02,0.21-0.02c0.55-0.1,1.15-0.18,1.85-0.26h0.05l0,0c2.5-0.28,5.55-0.32,7.96,0.54
			c0.63,0.18,1.48,0.5,2.17,1.02C131.87,116.27,132.68,117.94,130.62,120.64z M150.62,158.22c0,0-1.12,1.04-1.78,1.54
			c-1.62,1.41-3.52,2.71-5.53,3.91c-1.72,1.1-3.89,2.22-5.87,3.16c-14.29,6.85-25.32,4.54-25.32,4.54c-1.48-0.24-2.24-0.5-4.28-1.43
			c-1.46-0.65-2.87-1.64-4.09-2.64c-2.24-2.17-3.71-5.03-4.09-8.06c-0.71-6.46,2.79-12.28,8.52-15.33c2.43-1.3,4.98-2.3,7.69-2.85
			c2.25-0.49,4.57-0.71,6.89-0.81c1.48-0.06,2.95-0.06,4.41-0.03c0.53,0.03,1.3,0.06,2.14,0.13c0.11,0,0.24,0.02,0.39,0.03
			c1.12,0.03,2.35,0.13,3.83,0.28c4.64,0.75,6.08,1.36,11.13,2.82c3.1,1.69,7.66,2.43,9.18,5.99
			C155.5,153.31,152.84,155.46,150.62,158.22z"/>
		<polygon class="st1" points="342.07,217.61 358.85,217.61 358.85,235.39 364.38,235.39 364.38,197.46 358.85,197.46 358.85,212.3 
			342.07,212.3 342.07,197.46 336.54,197.46 336.54,235.39 342.07,235.39 		"/>
		<polygon class="st1" points="394.4,230.08 378.96,230.08 378.96,217.23 393.93,217.23 393.93,211.93 378.96,211.93 378.96,202.77 
			394.4,202.77 394.4,197.46 373.43,197.46 373.43,235.39 394.4,235.39 		"/>
		<polygon class="st1" points="418.78,230.08 407.41,230.08 407.41,197.46 401.88,197.46 401.88,235.39 418.78,235.39 		"/>
		<path class="st1" d="M430.2,226.17h16.25l4.01,9.21h6.26l-18.1-40.29l-18.78,40.29h6.15L430.2,226.17z M432.6,220.85l5.9-12.91
			l5.63,12.91H432.6z"/>
		<path class="st1" d="M475.43,235c1.57-0.24,3.15-0.73,4.7-1.49s2.98-1.74,4.28-2.89c4.09-3.58,6.12-8.27,6.12-14.1
			c0-2.92-0.5-5.56-1.51-8c-0.99-2.43-2.45-4.51-4.35-6.23c-2.64-2.38-5.68-3.84-9.13-4.38c-1.93-0.29-4.06-0.45-6.34-0.45h-7.75
			v37.92h7.64C471.58,235.39,473.69,235.26,475.43,235z M466.98,230.08v-27.32h2.58c2.56,0,4.72,0.28,6.47,0.81
			c1.75,0.57,3.29,1.44,4.62,2.66c1.31,1.23,2.35,2.72,3.08,4.53c0.75,1.78,1.09,3.67,1.09,5.65c0,2.03-0.34,3.91-1.09,5.64
			c-0.73,1.74-1.78,3.23-3.13,4.49c-1.38,1.26-2.92,2.17-4.64,2.72c-1.7,0.53-3.84,0.81-6.41,0.81H466.98z"/>
		<path class="st1" d="M500.2,228.44c1.77,2.32,4.07,4.17,6.96,5.56c2.85,1.4,5.79,2.11,8.76,2.11c2.97,0,5.86-0.71,8.76-2.11
			c2.87-1.4,5.19-3.24,6.94-5.53c1.28-1.7,2.29-3.6,3.02-5.73c0.75-2.12,1.12-4.25,1.12-6.34c0-2.08-0.37-4.17-1.12-6.33
			c-0.73-2.12-1.74-4.02-3.02-5.68c-1.75-2.3-4.07-4.17-6.94-5.56c-2.9-1.39-5.79-2.09-8.76-2.09c-2.95,0-5.87,0.7-8.74,2.09
			c-2.87,1.4-5.19,3.24-7.01,5.55c-1.23,1.62-2.24,3.52-2.97,5.69c-0.73,2.16-1.1,4.28-1.1,6.33c0,2.09,0.36,4.22,1.09,6.34
			C497.91,224.87,498.92,226.77,500.2,228.44z M515.92,202.05c2.22,0,4.3,0.47,6.28,1.43c1.96,0.96,3.57,2.25,4.8,3.93
			c0.94,1.25,1.65,2.68,2.22,4.31c0.54,1.62,0.81,3.2,0.81,4.69c0,1.52-0.28,3.1-0.81,4.74c-0.57,1.62-1.28,3.05-2.22,4.3
			c-1.23,1.67-2.86,2.98-4.82,3.93c-1.98,0.96-4.07,1.44-6.26,1.44c-2.21,0-4.28-0.49-6.28-1.44c-1.98-0.94-3.58-2.25-4.83-3.93
			c-0.92-1.25-1.67-2.68-2.19-4.3c-0.57-1.64-0.84-3.21-0.84-4.74c0-1.49,0.28-3.07,0.84-4.7c0.52-1.64,1.27-3.07,2.19-4.3
			c1.25-1.67,2.85-2.97,4.83-3.93C511.63,202.52,513.71,202.05,515.92,202.05z"/>
		<path class="st1" d="M553.4,230.81c-1.04,0-2.03-0.23-2.97-0.68c-0.92-0.44-1.67-1.04-2.24-1.8c-0.37-0.53-0.65-1.14-0.84-1.78
			c-0.19-0.65-0.37-1.62-0.55-2.92l-5.77,1.28c0.24,1.64,0.58,2.98,1.02,4.04c0.44,1.07,1.09,2.09,1.93,3.08
			c2.34,2.71,5.47,4.09,9.36,4.09c3.2,0,5.92-1.04,8.16-3.1c1.23-1.17,2.21-2.53,2.85-4.1c0.67-1.57,0.99-3.26,0.99-5.09
			c0-2.42-0.7-4.56-2.11-6.41c-1.36-1.8-3.65-3.34-6.83-4.66l-3.81-1.51c-2.77-1.14-4.17-2.63-4.17-4.48c0-1.36,0.54-2.48,1.61-3.37
			c1.04-0.91,2.38-1.35,3.99-1.35c1.51,0,2.72,0.39,3.65,1.18c0.62,0.49,1.3,1.35,2.04,2.61l4.66-2.74
			c-0.58-1.04-1.14-1.85-1.62-2.45c-0.49-0.58-1.07-1.15-1.75-1.69c-1.96-1.48-4.23-2.22-6.88-2.22c-1.48,0-2.92,0.24-4.31,0.73
			c-1.43,0.49-2.66,1.18-3.73,2.09c-2.22,1.83-3.34,4.28-3.34,7.3c0,2.01,0.63,3.83,1.87,5.47c1.2,1.56,3.18,2.94,5.95,4.1
			l3.67,1.56c1.95,0.81,3.33,1.72,4.17,2.72c0.84,1.01,1.26,2.24,1.26,3.75c0,1.82-0.58,3.33-1.78,4.53
			C556.7,230.21,555.2,230.81,553.4,230.81z"/>
		<path class="st1" d="M192.97,355.24c-2.24,0.08-4.15-0.45-5.74-1.61c-9.96-4.69-16.16-18.95-17.7-22.92
			c-4.25-9.46-14.94-33.22-18.41-40.03c-4.36-8.55-8.6-15.99-13.87-23.02c-3.65-4.88-10.45-12.93-13.88-15.65
			c1.18,0.02,7.69,0.31,8.87,0.24c8.68-0.42,17.15-2.37,25.42-5.82c8.21-3.42,15.44-7.84,21.7-13.2c0,0.03,0,0.08-0.02,0.11
			c4.95-4.44,9.08-9.6,11.27-12.52c1.41-2.04,2.71-4.18,3.86-6.41c3.63-7.02,5.08-14.4,4.31-22.14c-0.65-5.76-2.29-11.18-4.95-16.19
			c-0.73-1.4-1.54-2.76-2.4-4.09c-1.49-2.76-3.42-5.27-5.48-7.61c-3-3.42-6.31-6.98-9.81-9.88c-0.73-0.62-5.66-4.75-6.54-6.18
			c-1.18-1.87-1.18-4.1-1.98-6.41c-2.64-7.7-8.17-13.97-9.8-15.88c-15.85-17.21-36.17-15.1-36.17-15.1s-3.02,0.39-4.12,0.58
			c-0.96,0.16-1.9,0.36-2.82,0.58c-1.48,0.37-2.94,0.84-4.33,1.44c-1.66,0.73-3.15,1.72-4.53,2.87c-3.24,2.74-4.7,6.97-3.39,11.03
			c0.62,1.91,1.96,3.57,3.67,4.67c0.93,0.49,1.96,0.91,2.98,1.18c0.88,0.26,1.95,0.39,2.94,0.32c0.05,0.02,0.11,0.02,0.16,0.02
			c0,0,7.51-0.05,15.51-6.24c1.25-0.91,2.4-1.85,3.41-2.81c1.07-1.04,2.09-2.13,3-3.26c0.5-0.62,0.96-1.23,1.41-1.83
			c0.26-0.29,0.7-0.62,1.33-0.62c15.62,3.21,20.94,15.17,22.53,18.49c1.61,3.88-0.05,4.49-0.05,4.49c-0.84,0.37-1.88,0.31-2.6-0.03
			c-22.94-11.6-42.32-6.49-50.71-2.25c-0.23,0.1-0.47,0.19-0.7,0.31c-7.38,3.6-12.08,10.87-11.48,19.11
			c0.24,3.88,2.01,7.59,4.72,10.48c1.48,1.35,3.23,2.61,5.03,3.57c1.52,0.91,3.49,1.64,5.34,2.01c0,0,14.08,3.33,32.15-4.54
			c2.55-1.14,5.35-2.42,7.59-3.75c2.6-1.43,5.05-2.98,7.19-4.7c1.91-1.35,3.67-3.23,5.61-4.56c1.44-0.97,3.21-1.44,4.93-1.41
			c0.89,0.02,1.8,0.16,2.61,0.49c1.26,0.49,2.12,1.57,3.13,2.42c1.22,1.05,2.27,2.24,3.33,3.44c0.86,1.02,2.04,2.29,3.31,3.89
			c0.5,0.65,1.02,1.35,1.54,2.09c0.05,0.05,0.08,0.11,0.11,0.16c0.13,0.18,0.24,0.37,0.37,0.55c0.58,0.89,1.17,1.85,1.74,2.89
			c0.73,1.69,1.46,3.37,2.21,5.01c0.99,2.76,1.74,5.92,2.12,9.59c0.1,1.07,0.18,1.18,0.21,2.32c0.02,0.34-0.32,3.57-0.31,3.91
			c-0.63,6.15-2.55,10.04-6.5,15.62c-4.01,5.6-8.97,10.58-14.96,14.96c-5.97,4.38-12.55,7.98-19.77,10.8
			c-7.23,2.81-14.44,4.54-21.62,5.16c-7.17,0.58-13.97-0.08-20.37-1.99c-6.39-1.93-11.73-5.42-16.01-10.48
			c-3.86-4.66-5.74-9.33-5.61-14c0.15-4.69,1.49-8.89,4.1-12.6c2.6-3.71,6.02-6.73,10.25-9.07c4.23-2.35,8.53-3.55,12.86-3.62
			c4.33-0.06,8.32,1.22,11.94,3.81c3.62,2.63,6.08,7.02,7.35,13.2c0.39,1.91,1.18,2.76,2.42,2.58c1.22-0.18,1.69-1.17,1.39-2.97
			c-0.86-8.22-3.49-14.29-7.92-18.18c-4.43-3.88-9.46-6.03-15.1-6.44c-5.64-0.39-11.29,0.68-16.89,3.26
			c-5.6,2.56-10.02,6.28-13.27,11.14c-3.23,4.85-4.66,10.58-4.32,17.16c0.36,6.59,3.65,13.61,9.91,21.06
			c3.16,3.73,6.59,6.93,10.22,9.57c-0.05,0-0.1,0.02-0.16,0.02c0,0,13.93,10.4,16.33,11.35c0.31,0.23,0.63,0.45,0.94,0.67
			c4.32,3.02,8.78,7.62,13.43,13.8c4.62,6.2,9.41,13.42,14.32,21.67c4.88,8.27,9.6,16.64,14.18,25.18
			c4.57,8.5,8.86,16.58,12.85,24.22c3.97,7.59,14.23,21.27,23.68,20.88c1.05-0.05,2.14-0.32,3.28-0.81
			c1.15-0.49,2.01-1.01,2.61-1.56c0.58-0.57,0.71-1.05,0.34-1.48C196.33,355.32,195.11,355.16,192.97,355.24z M130.62,120.64
			c0,0-0.44,0.62-0.71,0.94c-0.68,0.88-1.46,1.7-2.34,2.5c-0.75,0.71-1.7,1.48-2.56,2.16c-6.23,4.72-11.99,4.79-11.99,4.79
			c-0.73,0.03-1.57-0.05-2.25-0.24c-0.78-0.21-1.56-0.53-2.25-0.91c-1.33-0.83-2.37-2.09-2.86-3.54c-1-3.1,0.13-6.33,2.63-8.39
			c1.05-0.91,2.22-1.65,3.5-2.21c1.05-0.47,2.17-0.83,3.29-1.09c0.71-0.19,1.44-0.34,2.17-0.47c0.26-0.05,0.63-0.1,1.05-0.16
			c0.05-0.02,0.13-0.02,0.21-0.02c0.55-0.1,1.15-0.18,1.85-0.26h0.05l0,0c2.5-0.28,5.55-0.32,7.96,0.54
			c0.63,0.18,1.48,0.5,2.17,1.02C131.87,116.27,132.68,117.94,130.62,120.64z M150.62,158.22c0,0-1.12,1.04-1.78,1.54
			c-1.62,1.41-3.52,2.71-5.53,3.91c-1.72,1.1-3.89,2.22-5.87,3.16c-14.29,6.85-25.32,4.54-25.32,4.54c-1.48-0.24-2.24-0.5-4.28-1.43
			c-1.46-0.65-2.87-1.64-4.09-2.64c-2.24-2.17-3.71-5.03-4.09-8.06c-0.71-6.46,2.79-12.28,8.52-15.33c2.43-1.3,4.98-2.3,7.69-2.85
			c2.25-0.49,4.57-0.71,6.89-0.81c1.48-0.06,2.95-0.06,4.41-0.03c0.53,0.03,1.3,0.06,2.14,0.13c0.11,0,0.24,0.02,0.39,0.03
			c1.12,0.03,2.35,0.13,3.83,0.28c4.64,0.75,6.08,1.36,11.13,2.82c3.1,1.69,7.66,2.43,9.18,5.99
			C155.5,153.31,152.84,155.46,150.62,158.22z"/>
		<path class="st1" d="M340.45,321.94c-0.65-0.57-1.43-0.97-2.32-1.25c-0.92-0.28-1.83-0.37-2.74-0.28c-0.93,0.1-1.48,0.5-1.66,1.23
			c-0.91,3.47-1.99,7.09-3.28,10.84c-1.28,3.75-3.21,7.17-5.76,10.27c-2.21,2.74-3.65,3.7-4.38,2.89c-0.73-0.83-1.2-2.06-1.38-3.7
			c-0.18-1.48-0.18-3.21,0-5.21c0.18-2.03,0.36-3.99,0.55-5.9c0.18-1.91,0.41-3.65,0.68-5.19c0.28-1.56,0.5-2.71,0.7-3.44
			c0.18-1.09,0.41-2.14,0.68-3.15c0.26-1.01,0.37-2.01,0.26-3.02c-0.08-1.01-0.44-1.83-1.09-2.47c-0.63-0.65-1.78-1.14-3.44-1.51
			c-2.9-0.36-5.48-0.18-7.66,0.55c-2.21,0.73-4.02,2.74-5.48,6.02c-0.92,2.01-2.01,4.44-3.29,7.27c-1.27,2.84-2.55,5.58-3.84,8.22
			c-1.27,2.64-2.51,5.03-3.68,7.12c-1.2,2.11-2.16,3.54-2.89,4.25c-0.91,0.93-1.64,1.05-2.19,0.41c-0.55-0.63-0.65-2.22-0.28-4.79
			c0.71-4.56,2.27-9.72,4.66-15.48c2.38-5.76,5.68-11.29,9.86-16.59c3.47-4.4,6.46-6.54,8.91-6.44c2.47,0.1,3.24,2.16,2.34,6.16
			c-0.18,1.28,0.55,1.87,2.19,1.78c1.64-0.08,3.24-0.68,4.8-1.78c1.56-1.09,2.5-2.6,2.87-4.51c0.37-1.93-0.83-4.07-3.57-6.46
			c-1.44-1.1-3.37-1.91-5.74-2.45c-2.37-0.55-4.83-0.83-7.4-0.83c-2.55,0-5.08,0.31-7.54,0.96c-2.47,0.65-4.53,1.51-6.16,2.6
			c-2.94,2.19-5.71,5.48-8.37,9.88c-2.63,4.38-4.83,9.08-6.55,14.1c-1.75,5.04-2.89,9.88-3.44,14.53
			c-0.55,4.66-0.28,8.19,0.83,10.54c0.73,1.48,1.99,2.84,3.83,4.1c1.83,1.3,3.65,2.11,5.48,2.48c1.46,0.37,2.97-0.05,4.54-1.23
			c1.52-1.18,2.77-2.42,3.68-3.7c1.64-2.01,3.55-4.43,5.76-7.27c2.19-2.84,3.73-4.96,4.66-6.42c0.36,1.99,0.88,4.09,1.52,6.28
			c0.63,2.21,1.48,4.22,2.6,6.03c1.09,1.83,2.55,3.34,4.36,4.53c1.83,1.18,4.12,1.78,6.86,1.78c2.92,0,5.61-0.96,8.09-2.87
			c2.45-1.93,4.66-4.35,6.57-7.27c1.91-2.92,3.52-6.12,4.79-9.59c1.28-3.47,2.19-6.85,2.74-10.15
			C341.33,323.11,341.09,322.48,340.45,321.94z"/>
		<path class="st1" d="M564.79,327.59c-0.63-0.36-1.36-0.58-2.17-0.68c-0.84-0.1-1.65-0.05-2.46,0.15c-0.83,0.18-1.43,0.73-1.8,1.64
			c-3.28,7.87-7.67,13.89-13.16,18.09c-5.48,4.2-10.32,6.13-14.52,5.74c-2.72-0.18-4.83-1.12-6.29-2.87
			c-1.46-1.74-2.34-3.75-2.61-6.02c-0.28-2.29-0.08-4.57,0.55-6.86c0.65-2.27,1.49-4.23,2.6-5.89c3.67,2.01,7.14,2.64,10.43,1.91
			c3.28-0.73,6.1-2.24,8.48-4.51c2.37-2.29,4.2-4.98,5.5-8.09c1.27-3.1,1.87-6.12,1.77-9.04c-0.1-2.94-0.96-5.43-2.61-7.54
			c-1.64-2.09-4.28-3.16-7.93-3.16c-6.42,0-11.83,1.75-16.32,5.22c-4.48,3.45-8.27,7.85-11.35,13.14
			c-2.03,3.67-3.54,7.72-4.54,12.21c-0.99,4.48-1.1,8.76-0.28,12.86c0.83,4.12,2.71,7.67,5.65,10.71c2.03,2.09,4.78,3.6,8.24,4.49
			c-1.98,1.4-4.27,2.42-6.89,3.03c-3.1,0.73-5.86,0.1-8.21-1.91c-3.49-2.74-5.53-8.18-6.16-16.32c-0.65-8.13,1.23-18.4,5.61-30.82
			c1.26-2.19,1.05-4.25-0.7-6.16c-1.74-1.93-3.91-3.42-6.57-4.53c-2.64-1.09-5.34-1.69-8.08-1.78c-2.74-0.08-4.56,0.58-5.48,2.06
			c-1.64,2.56-3.39,6.36-5.21,11.37c-1.83,5.03-3.54,10.09-5.08,15.22c-1.54,5.13-2.87,9.77-3.97,13.98
			c-1.1,4.2-1.91,6.85-2.45,7.93c0-1.09,0.03-3.1,0.13-6.02c0.08-2.92,0.32-6.16,0.68-9.73c0.36-3.57,0.96-7.12,1.77-10.69
			c0.83-3.55,2.06-6.52,3.71-8.91c1.26-1.82,1.31-3.55,0.13-5.21c-1.18-1.64-2.87-2.97-5.08-3.97c-2.17-1.02-4.33-1.56-6.42-1.65
			c-2.11-0.1-3.34,0.5-3.71,1.78c-0.55,1.65-1.23,4.43-2.04,8.35c-0.83,3.94-1.59,8.19-2.34,12.75c-0.55,3.5-1.04,6.89-1.43,10.17
			c-2.38,3.47-5.09,6.39-8.16,8.74c-5.47,4.2-10.32,6.13-14.53,5.74c-2.72-0.18-4.83-1.12-6.31-2.87c-1.44-1.74-2.32-3.75-2.6-6.02
			c-0.26-2.29-0.08-4.57,0.57-6.86c0.63-2.27,1.51-4.23,2.6-5.89c3.65,2.01,7.12,2.64,10.41,1.91c3.29-0.73,6.13-2.24,8.48-4.51
			c2.38-2.29,4.22-4.98,5.5-8.09c1.27-3.1,1.87-6.12,1.77-9.04c-0.08-2.94-0.96-5.43-2.6-7.54c-1.65-2.09-4.3-3.16-7.95-3.16
			c-6.41,0-11.83,1.75-16.3,5.22c-4.48,3.45-8.29,7.85-11.37,13.14c-1.49,2.71-2.71,5.63-3.65,8.78c-0.31,0.28-0.55,0.65-0.73,1.1
			c-0.37,0.91-0.83,1.98-1.38,3.15c-0.55,1.2-1.2,2.29-1.91,3.29c-0.75,1.01-1.56,1.77-2.48,2.34c-0.91,0.54-2,0.63-3.28,0.26
			c1.64-4.01,2.79-8.05,3.42-12.05c0.65-4.02,0.75-7.77,0.28-11.24c-0.47-3.45-1.56-6.39-3.29-8.76c-1.74-2.38-4.06-3.94-6.98-4.67
			c-2.76-0.55-5.4-0.18-7.95,1.1c-2.58,1.28-4.85,2.94-6.86,4.93c1.28-6.03,2.6-11.45,3.97-16.3c1.38-4.83,2.69-9.26,3.97-13.29
			c1.26-4.02,2.51-7.82,3.7-11.39c1.2-3.57,2.32-7.15,3.42-10.82c0.55-2.19,0.31-3.96-0.67-5.34c-1.01-1.38-2.35-2.37-3.99-3.02
			c-1.65-0.63-3.24-0.92-4.8-0.83c-1.56,0.1-2.6,0.7-3.13,1.78c-1.1,2.56-2.53,6.16-4.25,10.84c-1.75,4.66-3.54,10.09-5.37,16.29
			c-1.82,6.21-3.55,13.03-5.21,20.42c-1.64,7.4-3,14.94-4.1,22.61c-0.36,3.11-0.86,6.86-1.49,11.24c-0.63,4.38-0.84,8.66-0.57,12.88
			c0.29,4.2,1.25,7.95,2.89,11.22c1.64,3.29,4.57,5.4,8.76,6.31c3.31,0.73,6.26,0.73,8.92,0c2.64-0.73,4.98-1.93,6.97-3.57
			c2.03-1.64,3.75-3.52,5.21-5.61c1.48-2.09,2.76-4.15,3.84-6.16c4.02,1.28,7.77,0.91,11.24-1.09c0.18-0.13,0.34-0.21,0.5-0.32
			c0.06,0.32,0.11,0.67,0.18,0.99c0.81,4.12,2.69,7.67,5.61,10.71c2.94,3,7.32,4.79,13.16,5.34c8.78,0.73,16.72-1.78,23.85-7.53
			c0.6-0.5,1.18-0.99,1.74-1.52c0.34,1.3,1.26,2.56,2.77,3.84c1.75,1.46,3.7,2.64,5.9,3.55c2.17,0.92,4.28,1.48,6.29,1.65
			c2.03,0.19,3.2-0.18,3.57-1.09c2.92-11.16,5.66-19.47,8.22-24.95c2.55-5.5,4.66-9.51,6.29-12.07c1.28-1.99,1.96-2.55,2.06-1.64
			c0.1,0.92-0.05,2.38-0.42,4.4c-0.36,4.38-0.58,8.9-0.68,13.56c-0.1,4.66,0.37,9.08,1.38,13.29c1.01,4.2,2.72,7.9,5.21,11.11
			c2.47,3.2,6.07,5.34,10.82,6.44c3.11,1.09,5.9,1.09,8.37,0c2.45-1.1,4.53-2.51,6.16-4.25c1.64-1.73,2.79-3.34,3.42-4.8
			c0.11-0.23,0.18-0.44,0.26-0.62c1.23,0.28,2.56,0.49,3.99,0.62c8.76,0.73,16.72-1.78,23.83-7.53
			c7.14-5.78,12.15-13.67,15.09-23.72C565.76,328.32,565.44,327.96,564.79,327.59z M528.91,320.74c0.81-1.82,1.91-3.7,3.28-5.63
			c1.38-1.9,2.89-3.55,4.53-4.92c1.64-1.38,3-1.88,4.1-1.51c1.65,0.73,2.38,2.24,2.19,4.53c-0.18,2.27-0.96,4.51-2.32,6.7
			c-1.38,2.21-3.15,3.89-5.34,5.08c-2.19,1.18-4.4,0.96-6.57-0.68C528.03,323.76,528.08,322.57,528.91,320.74z M429.7,320.74
			c0.83-1.82,1.93-3.7,3.28-5.63c1.38-1.9,2.9-3.55,4.53-4.92c1.65-1.38,3.03-1.88,4.12-1.51c1.64,0.73,2.37,2.24,2.19,4.53
			c-0.19,2.27-0.96,4.51-2.32,6.7c-1.38,2.21-3.16,3.89-5.35,5.08c-2.19,1.18-4.4,0.96-6.57-0.68
			C428.83,323.76,428.87,322.57,429.7,320.74z M389.28,320.47c-0.18,3.1-0.6,6.49-1.23,10.14c-0.63,3.65-1.54,7.04-2.74,10.14
			c-1.18,3.11-2.51,5.76-3.96,7.95c-1.48,2.19-3.03,3.39-4.67,3.57c-1.46,0.19-2.39-1.1-2.74-3.84c-0.37-2.74-0.41-5.92-0.13-9.59
			c0.26-3.65,0.68-7.22,1.23-10.69c0.53-3.47,1.01-5.76,1.36-6.85c1.26-3.65,2.92-6.62,4.95-8.91c2.01-2.29,3.63-3.34,4.9-3.16
			c1.3,0.2,2.16,1.33,2.61,3.44C389.33,314.76,389.46,317.35,389.28,320.47z"/>
		<path class="st1" d="M325.06,210.52c-0.55-1.91-1.23-3.45-2.04-4.64c-0.84-1.2-1.62-1.96-2.34-2.34c-0.73-0.37-1.09,0-1.09,1.09
			c0,0.55,0.08,1.2,0.26,1.93c0.18,0.73,0.18,1.46,0,2.19c-0.73,4.2-3.46,7.38-8.21,9.57c-4.75,2.19-10.67,3.7-17.79,4.51
			c-6.42,0.73-13.41,1.04-20.94,0.96c-1.67-0.45-3.28-0.79-4.69-0.86c-0.02-0.02-0.02-0.03-0.02-0.06c0.1-0.62-0.19-1.26-0.78-1.88
			c-1.31-3.08-2.92-6.03-4.79-8.81c-2.29-3.37-5.13-6.16-8.5-8.37c-3.41-2.19-7.37-3.55-11.94-4.1c-4.56-0.55-9.85,0-15.88,1.64
			c-6.76,2.03-12.75,5.73-17.96,11.11c-5.21,5.39-9.46,11.55-12.73,18.49c-3.31,6.94-5.48,14.24-6.59,21.93
			c-1.1,7.66-0.86,14.71,0.7,21.09c1.56,6.41,4.66,11.7,9.3,15.91c4.67,4.2,11.01,6.39,19.08,6.57c1.25,0.18,2.58,0.13,3.96-0.15
			s2.04-0.86,2.04-1.77c0-0.37-0.55-0.58-1.62-0.7c-1.12-0.08-2.4-0.31-3.86-0.67c-5.11-1.12-9.04-3.86-11.76-8.24
			c-2.76-4.38-4.48-9.59-5.21-15.62c-0.75-6.03-0.6-12.51,0.39-19.45c1.01-6.94,2.74-13.53,5.21-19.74
			c2.47-6.21,5.53-11.68,9.2-16.43c3.63-4.75,7.66-7.95,12.05-9.59c3.1-1.1,6.02-1.41,8.78-0.97c2.72,0.45,5.29,1.56,7.67,3.29
			c2.37,1.74,4.41,3.97,6.15,6.72c1.74,2.74,3.07,5.86,3.99,9.33c-6.59-0.37-12.39-0.57-17.41-0.57c-5.03,0-8.53,0.37-10.56,1.09
			c-2.19,0.71-3.73,1.54-4.64,2.53c-0.92,0.96-1.43,1.83-1.52,2.63c-0.1,0.79,0.24,1.38,0.96,1.74c0.75,0.34,1.64,0.26,2.74-0.29
			c3.49-1.57,8.09-2.19,13.85-1.83c5.76,0.34,11.53,1.15,17.39,2.37c0.37,8.22,0.03,16.82-0.96,25.76
			c-1.01,8.95-2.24,17.47-3.68,25.5c-5.69-0.19-9.42-0.47-11.26-0.83c-1.82-0.36-3.37-0.45-4.64-0.28c-1.3,0.18-2.21,0.73-2.76,1.64
			c-0.54,0.94-0.96,1.93-1.23,3.02c-0.28,1.1-0.37,2.16-0.28,3.16c0.1,1.01,0.23,1.78,0.42,2.32c0.36-0.18,1.87-0.03,4.51,0.41
			c2.66,0.47,6.99,0.7,13.03,0.7c-1.83,7.67-4.01,15.07-6.59,22.19c-2.55,7.14-5.11,14.16-7.66,21.1
			c-1.65,4.77-2.43,9.05-2.34,12.88c0.08,3.84,1.69,7.22,4.8,10.14c3.08,2.92,5.47,4.07,7.12,3.44c1.65-0.65,3.18-3.07,4.66-7.27
			c3.65-10.41,6.88-20.73,9.73-30.97c2.84-10.24,5.52-20.37,8.09-30.42c9.67,0.36,17.24-0.34,22.73-2.06
			c5.5-1.74,9.38-3.65,11.66-5.76c2.27-2.11,3.24-3.89,2.87-5.35c-0.36-1.46-1.56-1.82-3.55-1.09c-7.14,2.92-13.12,4.38-17.96,4.38
			c-4.85,0-9.64-0.08-14.4-0.28c0.92-4.01,1.69-8.58,2.34-13.71c0.65-5.11,1.1-10.17,1.38-15.2s0.32-9.59,0.15-13.71
			c-0.13-2.61-0.36-4.83-0.7-6.68c2.55,0.02,4.92-0.06,7.14-0.23c4.93,0.28,9.89,0.39,14.91,0.31c5.56-0.1,10.62-0.68,15.18-1.77
			c4.57-1.09,8.35-2.77,11.37-5.06c3.02-2.29,4.88-5.53,5.61-9.73C325.79,214.49,325.61,212.43,325.06,210.52z"/>
	</g>
</g>
</svg>
